<?xml version="1.0"?>
<svg xmlns="http://www.w3.org/2000/svg" xmlns:xlink="http://www.w3.org/1999/xlink" xmlns:svgjs="http://svgjs.com/svgjs" version="1.1" width="512" height="512" x="0" y="0" viewBox="0 0 448 447" style="enable-background:new 0 0 512 512" xml:space="preserve" class=""><g><path xmlns="http://www.w3.org/2000/svg" d="m128 184.5v-64c0-4.417969-3.582031-8-8-8h-120v80h120c4.417969 0 8-3.582031 8-8zm-40 0c-17.671875 0-32-14.328125-32-32s14.328125-32 32-32 32 14.328125 32 32-14.328125 32-32 32zm0 0" fill="#000000" data-original="#000000" style="" class=""/><path xmlns="http://www.w3.org/2000/svg" d="m104 152.5c0 8.835938-7.164062 16-16 16s-16-7.164062-16-16 7.164062-16 16-16 16 7.164062 16 16zm0 0" fill="#000000" data-original="#000000" style="" class=""/><path xmlns="http://www.w3.org/2000/svg" d="m344 232.5c-57.4375 0-104 46.5625-104 104s46.5625 104 104 104 104-46.5625 104-104c-.054688-57.414062-46.585938-103.945312-104-104zm80 112h-72v64h-16v-64h-72v-16h72v-72h16v72h72zm0 0" fill="#000000" data-original="#000000" style="" class=""/><path xmlns="http://www.w3.org/2000/svg" d="m440 .5h-432c-4.417969 0-8 3.582031-8 8v88h120c13.238281.039062 23.960938 10.761719 24 24v64c-.039062 13.238281-10.761719 23.960938-24 24h-120v88c0 4.417969 3.582031 8 8 8h220.480469c12.84375-46.671875 52.515625-81.027344 100.546875-87.066406 48.03125-6.039063 94.976562 17.425781 118.972656 59.464844v-268.398438c0-4.417969-3.582031-8-8-8zm0 0" fill="#000000" data-original="#000000" style="" class=""/></g></svg>
