<svg id="Capa_1" enable-background="new 0 0 512 512" height="512" viewBox="0 0 512 512" width="512" xmlns="http://www.w3.org/2000/svg"><g><path d="m246 190c-5.514 0-10-4.486-10-10 0-5.522-4.477-10-10-10s-10 4.478-10 10c0 16.542 13.458 30 30 30h10v10c0 5.522 4.477 10 10 10s10-4.478 10-10v-10h10c16.542 0 30-13.458 30-30v-20c0-16.542-13.458-30-30-30h-10v-40h10c5.514 0 10 4.486 10 10 0 5.522 4.477 10 10 10s10-4.478 10-10c0-16.542-13.458-30-30-30h-10v-10c0-5.522-4.477-10-10-10s-10 4.478-10 10v10h-10c-16.542 0-30 13.458-30 30v20c0 16.542 13.458 30 30 30h10v40zm30-40h10c5.514 0 10 4.486 10 10v20c0 5.514-4.486 10-10 10h-10zm-30-20c-5.514 0-10-4.486-10-10v-20c0-5.514 4.486-10 10-10h10v40z"/><path d="m76 512h360c5.523 0 10-4.478 10-10v-202h10c5.523 0 10-4.478 10-10v-40c0-5.522-4.477-10-10-10h-92.061c26.718-26.063 42.061-61.769 42.061-100 0-77.196-62.804-140-140-140s-140 62.804-140 140c0 38.231 15.343 73.937 42.061 100h-112.061c-5.523 0-10 4.478-10 10v40c0 5.522 4.477 10 10 10h10v202c0 5.522 4.477 10 10 10zm350-20h-340v-192h340zm-280-352c0-66.168 53.832-120 120-120s120 53.832 120 120c0 40.452-20.047 77.618-53.76 100h-132.48c-33.713-22.382-53.76-59.548-53.76-100zm-80 120h380v20h-380z"/><path d="m156 426h200c5.523 0 10-4.478 10-10v-40c0-5.522-4.477-10-10-10h-200c-5.523 0-10 4.478-10 10v40c0 5.522 4.477 10 10 10z"/></g></svg>