<svg id="Capa_1" enable-background="new 0 0 512 512" height="512" viewBox="0 0 512 512" width="512" xmlns="http://www.w3.org/2000/svg"><g><path d="m0 497c0 8.284 6.716 15 15 15h482c8.284 0 15-6.716 15-15v-202l-16-15h-480l-16 15z" fill="#b1705b"/><path d="m256 280v232h241c8.284 0 15-6.716 15-15v-202l-16-15z" fill="#875140"/><g><path d="m471.23 170.257c-2.042-6.125-7.774-10.257-14.23-10.257h-402c-6.457 0-12.188 4.132-14.23 10.257l-40 120c-.51 1.529-.77 3.131-.77 4.743h512c0-1.612-.26-3.214-.77-4.743z" fill="#c69687"/></g><path d="m471.23 170.257c-2.042-6.125-7.774-10.257-14.23-10.257h-201v135h256c0-1.612-.26-3.214-.77-4.743z" fill="#b1705b"/><g><g><g><path d="m437 452h-362c-8.284 0-15-6.716-15-15v-82c0-8.284 6.716-15 15-15h362c8.284 0 15 6.716 15 15v82c0 8.284-6.716 15-15 15z" fill="#fbf3f3"/></g><path d="m437 340h-181v112h181c8.284 0 15-6.716 15-15v-82c0-8.284-6.716-15-15-15z" fill="#dddcf3"/><g><path d="m386 250h-260c-8.284 0-15-6.716-15-15s6.716-15 15-15h260c8.284 0 15 6.716 15 15s-6.716 15-15 15z" fill="#b1705b"/></g><path d="m386 220h-130v30h130c8.284 0 15-6.716 15-15s-6.716-15-15-15z" fill="#875140"/><circle cx="256" cy="125" fill="#faf16c" r="125"/><path d="m381 125c0-68.925-56.075-125-125-125v250c68.925 0 125-56.075 125-125z" fill="#f2d231"/><circle cx="256" cy="125" fill="#f2d231" r="95"/><path d="m351 125c0-52.383-42.617-95-95-95v190c52.383 0 95-42.617 95-95z" fill="#ecb455"/><path d="m270.6 114.944c-1.741-.615-3.515-1.255-5.29-1.914v-32.311c3.055 1.126 4.645 2.656 4.872 2.887 3.638 4.104 9.909 4.513 14.051.905 4.164-3.627 4.6-9.944.972-14.108-3.323-3.815-10.186-8.594-19.895-10.276v-5.127c0-5.522-4.478-10-10-10-5.523 0-10 4.478-10 10v6.223c-.616.163-1.238.337-1.865.526-11.853 3.571-20.705 13.689-23.102 26.407-2.199 11.671 1.59 22.964 9.888 29.472 3.917 3.073 8.691 5.889 15.079 8.817v42.237c-4.519-.636-7.905-2.173-13.306-5.706-4.621-3.023-10.819-1.728-13.843 2.894-3.023 4.622-1.728 10.819 2.895 13.843 9.488 6.207 16.18 8.388 24.254 9.086v6.201c0 5.522 4.477 10 10 10 5.522 0 10-4.478 10-10v-7.162c16.616-4.215 27.266-18.408 29.619-32.403 3.026-18.004-6.751-34.277-24.329-40.491zm-28.026-13.052c-2.365-1.854-3.376-5.792-2.578-10.031.579-3.073 2.261-6.615 5.313-8.956v20.913c-.984-.631-1.902-1.273-2.735-1.926zm32.631 50.228c-.911 5.42-4.271 11.117-9.896 14.339v-32.121c10.822 4.558 10.553 13.873 9.896 17.782z" fill="#faf16c"/><path d="m270.6 114.944c-1.741-.615-3.515-1.255-5.29-1.914v-32.311c3.055 1.126 4.645 2.656 4.872 2.887 3.638 4.104 9.909 4.513 14.051.905 4.164-3.627 4.6-9.944.972-14.108-3.323-3.815-10.186-8.594-19.895-10.276v-5.127c0-5.289-4.111-9.609-9.31-9.965v159.93c5.199-.356 9.31-4.676 9.31-9.965v-7.162c16.616-4.215 27.266-18.408 29.619-32.403 3.026-18.004-6.751-34.277-24.329-40.491zm4.605 37.176c-.911 5.42-4.271 11.117-9.896 14.339v-32.121c10.822 4.558 10.553 13.873 9.896 17.782z" fill="#f2d231"/></g></g></g></svg>