<?xml version="1.0"?>
<svg xmlns="http://www.w3.org/2000/svg" xmlns:xlink="http://www.w3.org/1999/xlink" xmlns:svgjs="http://svgjs.com/svgjs" version="1.1" width="16.334" height="16.334" x="0" y="0" viewBox="0 0 512 512" style="enable-background:new 0 0 512 512" xml:space="preserve" class=""><g>
<g xmlns="http://www.w3.org/2000/svg">
	<g>
		<path d="M478.382,177.199c0.609-2.717,0.937-5.499,0.937-8.348v-65.362c0-56.605-123.479-87.149-239.66-87.149S0,46.884,0,103.489    c0,2.442,0.245,4.831,0.694,7.175C0.269,111.829,0,113.071,0,114.383v54.468c0,18.108,12.652,33.544,33.644,46.172    c-0.628,2.744-0.963,5.515-0.963,8.295c0,2.442,0.245,4.831,0.694,7.176c-0.426,1.165-0.694,2.407-0.694,3.719v54.468    c0,5.001,0.983,9.794,2.82,14.385c-20.102,14.896-24.607,29.807-24.607,40.083c0,2.442,0.245,4.831,0.694,7.175    c-0.426,1.165-0.694,2.406-0.694,3.719v54.468c0,56.605,123.479,87.149,239.66,87.149s239.66-30.544,239.66-87.149v-65.362    c0-4.836-0.967-9.612-2.842-14.275C502.912,317.45,512,304.025,512,288.681v-65.362v-0.001    C512,211.322,505.987,193.895,478.382,177.199z M81.343,59.903c42.125-14.041,98.351-21.775,158.316-21.775    s116.189,7.734,158.316,21.775c37.293,12.431,59.556,28.725,59.556,43.586s-22.263,31.155-59.556,43.586    c-42.128,14.041-98.351,21.775-158.316,21.775s-116.192-7.734-158.316-21.775c-37.293-12.431-59.556-28.725-59.556-43.586    S44.051,72.334,81.343,59.903z M457.532,141.516v27.335c0,12.589-16.022,26.197-43.574,37.623v-41.967    C431.517,158.009,446.414,150.332,457.532,141.516z M392.17,171.598v42.681c-13.338,4.142-27.96,7.679-43.574,10.574v-43.36    C363.948,178.784,378.596,175.481,392.17,171.598z M326.809,184.885v43.513c-13.975,1.958-28.555,3.442-43.574,4.417V189.22    C297.996,188.259,312.609,186.81,326.809,184.885z M261.447,190.283v43.582c-7.195,0.228-14.462,0.347-21.787,0.347    s-14.593-0.119-21.787-0.347v-43.583c7.27,0.236,14.542,0.355,21.787,0.355C246.904,190.638,254.177,190.519,261.447,190.283z     M196.085,189.22v43.596c-15.019-0.976-29.6-2.459-43.575-4.417v-43.513C166.71,186.81,181.323,188.259,196.085,189.22z     M130.723,181.494v43.36c-15.614-2.896-30.237-6.432-43.574-10.574v-42.682C100.723,175.481,115.372,178.785,130.723,181.494z     M21.787,168.851v-27.335c11.118,8.816,26.015,16.493,43.574,22.991v41.967C37.809,195.048,21.787,181.44,21.787,168.851z     M54.468,261.344c11.118,8.816,26.015,16.493,43.574,22.991v41.968c-27.552-11.426-43.574-25.034-43.574-37.623V261.344z     M76.255,446.134c-27.552-11.426-43.574-25.034-43.574-37.623v-27.335c11.118,8.816,26.015,16.493,43.574,22.991V446.134z     M141.617,464.514c-15.614-2.896-30.237-6.432-43.574-10.574v-42.682c13.574,3.882,28.223,7.186,43.574,9.896V464.514z     M206.979,472.475c-15.019-0.976-29.6-2.46-43.575-4.417v-43.513c14.2,1.924,28.813,3.373,43.575,4.335V472.475z M272.34,473.525    c-7.195,0.228-14.462,0.347-21.787,0.347c-7.325,0-14.593-0.119-21.787-0.347v-43.582c7.27,0.236,14.542,0.355,21.787,0.355    c7.245,0,14.517-0.119,21.787-0.355V473.525z M337.702,468.058c-13.975,1.958-28.555,3.442-43.574,4.417V428.88    c14.762-0.961,29.375-2.41,43.574-4.334V468.058z M403.064,453.939c-13.338,4.142-27.96,7.679-43.574,10.574v-43.36    c15.352-2.709,30.001-6.013,43.574-9.895V453.939z M468.426,408.511c0,12.589-16.022,26.197-43.574,37.623v-41.967    c17.56-6.499,32.457-14.175,43.574-22.991V408.511z M408.87,386.735c-42.128,14.041-98.351,21.775-158.316,21.775    s-116.192-7.734-158.316-21.775c-37.293-12.431-59.556-28.725-59.556-43.586c0-8.527,7.383-16.324,15.237-22.209    c36.485,35.855,132.719,54.89,224.423,54.89c73.334,0,149.563-12.174,195.823-35.386c0.161,0.904,0.262,1.805,0.262,2.705    C468.426,358.011,446.162,374.304,408.87,386.735z M119.83,334.11v-42.683c13.574,3.882,28.223,7.186,43.574,9.895v43.362    C147.79,341.789,133.167,338.252,119.83,334.11z M185.192,348.229v-43.515c14.2,1.924,28.813,3.373,43.574,4.335v43.597    C213.747,351.67,199.166,350.186,185.192,348.229z M250.553,353.695v-43.584c7.27,0.236,14.542,0.355,21.787,0.355    s14.517-0.119,21.787-0.355v43.584c-7.195,0.228-14.462,0.347-21.787,0.347S257.748,353.923,250.553,353.695z M315.915,352.645    v-43.597c14.762-0.961,29.375-2.41,43.574-4.335v43.515C345.515,350.186,330.934,351.67,315.915,352.645z M381.277,344.684    v-43.362c15.352-2.709,30.001-6.013,43.574-9.895v42.683C411.513,338.252,396.891,341.789,381.277,344.684z M490.213,288.681    c0,12.589-16.022,26.197-43.574,37.623v-41.968c17.56-6.499,32.457-14.175,43.574-22.991V288.681z M430.657,266.904    c-42.125,14.042-98.351,21.775-158.316,21.775c-59.965,0-116.192-7.733-158.316-21.775c-35.372-11.79-57.185-27.055-59.342-41.277    C101.462,245.575,171.799,256,239.66,256c95.5,0,195.913-20.642,228.641-59.428c14.183,8.809,21.912,18.177,21.912,26.746    C490.213,238.179,467.949,254.473,430.657,266.904z" fill="#ffffff" data-original="#000000" style=""/>
	</g>
</g>
<g xmlns="http://www.w3.org/2000/svg">
</g>
<g xmlns="http://www.w3.org/2000/svg">
</g>
<g xmlns="http://www.w3.org/2000/svg">
</g>
<g xmlns="http://www.w3.org/2000/svg">
</g>
<g xmlns="http://www.w3.org/2000/svg">
</g>
<g xmlns="http://www.w3.org/2000/svg">
</g>
<g xmlns="http://www.w3.org/2000/svg">
</g>
<g xmlns="http://www.w3.org/2000/svg">
</g>
<g xmlns="http://www.w3.org/2000/svg">
</g>
<g xmlns="http://www.w3.org/2000/svg">
</g>
<g xmlns="http://www.w3.org/2000/svg">
</g>
<g xmlns="http://www.w3.org/2000/svg">
</g>
<g xmlns="http://www.w3.org/2000/svg">
</g>
<g xmlns="http://www.w3.org/2000/svg">
</g>
<g xmlns="http://www.w3.org/2000/svg">
</g>
</g></svg>
