<?xml version="1.0"?>
<svg xmlns="http://www.w3.org/2000/svg" xmlns:xlink="http://www.w3.org/1999/xlink" xmlns:svgjs="http://svgjs.com/svgjs" version="1.1" width="512" height="512" x="0" y="0" viewBox="0 0 512 512" style="enable-background:new 0 0 512 512" xml:space="preserve" class=""><g><linearGradient xmlns="http://www.w3.org/2000/svg" id="SVGID_1_" gradientUnits="userSpaceOnUse" x1="256" x2="256" y1="512" y2="0"><stop stop-opacity="1" stop-color="#5558ff" offset="0"/><stop stop-opacity="0" stop-color="#fffafa" offset="0"/></linearGradient><linearGradient xmlns="http://www.w3.org/2000/svg" id="SVGID_2_" gradientUnits="userSpaceOnUse" x1="256" x2="256" y1="421" y2="211"><stop stop-opacity="1" stop-color="#eaf6ff" offset="0"/><stop stop-opacity="1" stop-color="#000000" offset="0"/><stop stop-opacity="1" stop-color="#000000" offset="0.06563706563706563"/></linearGradient><g xmlns="http://www.w3.org/2000/svg"><g><g><path d="m445.609 154.472-180-151c-5.566-4.629-13.652-4.629-19.219 0l-180 151c-4.834 4.043-6.65 10.693-4.482 16.641 2.139 5.932 7.764 9.887 14.092 9.887h72.041l-56.807 313.319c-.791 4.38.41 8.877 3.252 12.29s7.061 5.391 11.514 5.391h300c4.453 0 8.672-1.978 11.514-5.391s4.043-7.91 3.252-12.29l-56.807-313.319h72.041c6.328 0 11.953-3.955 14.092-9.888 2.168-5.947.351-12.597-4.483-16.64z" fill="url(#SVGID_1_)" data-original="url(#SVGID_1_)" style=""/></g></g><g><g><path d="m256 301c-8.262 0-15-6.724-15-15s6.738-15 15-15 15 6.724 15 15c0 8.291 6.709 15 15 15s15-6.709 15-15c0-19.53-12.578-36.024-30-42.237v-17.763c0-8.291-6.709-15-15-15s-15 6.709-15 15v17.763c-17.422 6.213-30 22.707-30 42.237 0 24.814 20.186 45 45 45 8.262 0 15 6.724 15 15s-6.738 15-15 15-15-6.724-15-15c0-8.291-6.709-15-15-15s-15 6.709-15 15c0 19.53 12.578 36.024 30 42.237v17.763c0 8.291 6.709 15 15 15s15-6.709 15-15v-17.763c17.422-6.212 30-22.707 30-42.237 0-24.814-20.186-45-45-45z" fill="url(#SVGID_2_)" data-original="url(#SVGID_2_)" style=""/></g></g></g></g></svg>
