<?xml version="1.0"?>
<svg xmlns="http://www.w3.org/2000/svg" xmlns:xlink="http://www.w3.org/1999/xlink" xmlns:svgjs="http://svgjs.com/svgjs" version="1.1" width="512" height="512" x="0" y="0" viewBox="0 0 513.071 513.071" style="enable-background:new 0 0 512 512" xml:space="preserve" class=""><g><g xmlns="http://www.w3.org/2000/svg"><path d="m311.531 185c0-30.327-24.673-55-55-55s-55 24.673-55 55 24.673 55 55 55 55-24.673 55-55zm-80 0c0-13.785 11.215-25 25-25s25 11.215 25 25-11.215 25-25 25-25-11.215-25-25z" fill="#ffffff" data-original="#000000" style="" class=""/><path d="m512.362 500.219c.315-2.106.186-308.971.044-310.103-.485-3.838-2.206-6.644-4.68-9.119-2.096-1.941-118.424-85.752-132.196-95.796v-70.201c0-8.284-6.716-15-15-15-20.683 0-185.381 0-208 0-8.284 0-15 6.716-15 15v70.191c-14.853 10.836-121.527 87.743-130.94 94.775-3.206 2.381-5.485 6.06-5.963 10.414-.189 1.743-.094 308.191-.055 308.72.563 7.759 7.049 13.9 14.958 13.9 516.359 0 483.325.437 486.988-.862 5.292-1.867 9.027-6.473 9.844-11.919zm-481.831-31.847v-246.855l167.907 122.538c-7.537 5.535-159.507 118.147-167.907 124.317zm193.271-142.946-56.271-41.067v-183.635c36.018-6.085 64.42-34.812 70.683-70.724h36.633c6.251 35.84 34.598 64.628 70.683 70.724v183.636l-56.271 41.067-23.849-17.517c-5.284-3.881-12.475-3.881-17.759 0zm90.822 18.629 167.907-122.538v246.855c-8.401-6.17-160.37-118.782-167.907-124.317zm157.423-152.027-96.517 70.438v-140.193c19.538 14.126 40.949 29.413 96.517 69.755zm-126.516-162.028v40.116c-19.606-5.063-34.767-20.894-40.012-40.116zm-178 0h40.012c-5.245 19.222-20.406 35.053-40.012 40.116zm-30 92.267v140.199l-96.516-70.438c55.608-40.372 76.395-55.214 96.516-69.761zm-76.236 360.733c20.228-14.857 174.715-129.317 195.236-144.389 143.455 105.358 121.049 89.903 195.236 144.389z" fill="#ffffff" data-original="#000000" style="" class=""/></g></g></svg>
